<svg width="50" height="50" viewBox="0 0 50 50" fill="none" xmlns="http://www.w3.org/2000/svg">
<path d="M15.3647 34.9615L17.9688 31.7073L9.5855 25.001L17.9688 18.2948L15.3647 15.0406L4.948 23.374C4.70393 23.5691 4.50689 23.8167 4.37148 24.0984C4.23608 24.38 4.16577 24.6885 4.16577 25.001C4.16577 25.3136 4.23608 25.6221 4.37148 25.9037C4.50689 26.1854 4.70393 26.433 4.948 26.6281L15.3647 34.9615ZM34.6355 15.0406L32.0313 18.2948L40.4147 25.001L32.0313 31.7073L34.6355 34.9615L45.0522 26.6281C45.2962 26.433 45.4933 26.1854 45.6287 25.9037C45.7641 25.6221 45.8344 25.3136 45.8344 25.001C45.8344 24.6885 45.7641 24.38 45.6287 24.0984C45.4933 23.8167 45.2962 23.5691 45.0522 23.374L34.6355 15.0406ZM31.2001 6.70104L22.8667 44.201L18.798 43.2969L27.1313 5.79688L31.2001 6.70104Z" fill="#BC658D"/>
</svg>
