<svg width="40" height="40" viewBox="0 0 40 40" fill="none" xmlns="http://www.w3.org/2000/svg">
<g opacity="0.8">
<path d="M31.782 8.21732L29.432 10.5673C31.832 12.984 33.332 16.3173 33.332 20.0007C33.332 27.3673 27.3654 33.334 19.9987 33.334C12.632 33.334 6.66536 27.3673 6.66536 20.0007C6.66536 13.2007 11.7487 7.60065 18.332 6.78398V10.1507C13.5987 10.9507 9.9987 15.0507 9.9987 20.0007C9.9987 25.5173 14.482 30.0007 19.9987 30.0007C25.5154 30.0007 29.9987 25.5173 29.9987 20.0007C29.9987 17.234 28.882 14.734 27.0654 12.934L24.7154 15.284C25.9154 16.5007 26.6654 18.1673 26.6654 20.0007C26.6654 23.684 23.682 26.6673 19.9987 26.6673C16.3154 26.6673 13.332 23.684 13.332 20.0007C13.332 16.9007 15.4654 14.3173 18.332 13.5673V17.134C17.332 17.7173 16.6654 18.7673 16.6654 20.0007C16.6654 21.834 18.1654 23.334 19.9987 23.334C21.832 23.334 23.332 21.834 23.332 20.0007C23.332 18.7673 22.6654 17.7007 21.6654 17.134V3.33398H19.9987C10.7987 3.33398 3.33203 10.8007 3.33203 20.0007C3.33203 29.2007 10.7987 36.6673 19.9987 36.6673C29.1987 36.6673 36.6654 29.2007 36.6654 20.0007C36.6654 15.4007 34.7987 11.234 31.782 8.21732Z" fill="#00838F"/>
</g>
</svg>
