<svg width="27" height="40" viewBox="0 0 27 40" fill="none" xmlns="http://www.w3.org/2000/svg">
<g clip-path="url(#clip0_3825_7941)">
<path d="M6.66667 40.0013C10.3467 40.0013 13.3333 37.0146 13.3333 33.3346V26.668H6.66667C2.98667 26.668 0 29.6546 0 33.3346C0 37.0146 2.98667 40.0013 6.66667 40.0013Z" fill="#0ACF83"/>
<path d="M0 19.9987C0 16.3187 2.98667 13.332 6.66667 13.332H13.3333V26.6654H6.66667C2.98667 26.6654 0 23.6787 0 19.9987Z" fill="#A259FF"/>
<path d="M0 6.66667C0 2.98667 2.98667 0 6.66667 0H13.3333V13.3333H6.66667C2.98667 13.3333 0 10.3467 0 6.66667Z" fill="#F24E1E"/>
<path d="M13.3359 0H20.0026C23.6826 0 26.6693 2.98667 26.6693 6.66667C26.6693 10.3467 23.6826 13.3333 20.0026 13.3333H13.3359V0Z" fill="#FF7262"/>
<path d="M26.6693 19.9987C26.6693 23.6787 23.6826 26.6654 20.0026 26.6654C16.3226 26.6654 13.3359 23.6787 13.3359 19.9987C13.3359 16.3187 16.3226 13.332 20.0026 13.332C23.6826 13.332 26.6693 16.3187 26.6693 19.9987Z" fill="#1ABCFE"/>
</g>
<defs>
<clipPath id="clip0_3825_7941">
<rect width="26.6667" height="40" fill="white"/>
</clipPath>
</defs>
</svg>
