<svg width="40" height="40" viewBox="0 0 40 40" fill="none" xmlns="http://www.w3.org/2000/svg">
<g opacity="0.8" clip-path="url(#clip0_3215_5400)">
<path d="M15.0078 13.75C15.0078 14.7446 14.6127 15.6984 13.9095 16.4017C13.2062 17.1049 12.2524 17.5 11.2578 17.5C10.2632 17.5 9.30942 17.1049 8.60616 16.4017C7.9029 15.6984 7.50781 14.7446 7.50781 13.75C7.50781 12.7554 7.9029 11.8016 8.60616 11.0983C9.30942 10.3951 10.2632 10 11.2578 10C12.2524 10 13.2062 10.3951 13.9095 11.0983C14.6127 11.8016 15.0078 12.7554 15.0078 13.75Z" fill="#2C333A"/>
<path d="M3.75 5C2.75544 5 1.80161 5.39509 1.09835 6.09835C0.395088 6.80161 0 7.75544 0 8.75L0 31.25C0 32.2446 0.395088 33.1984 1.09835 33.9017C1.80161 34.6049 2.75544 35 3.75 35H36.25C37.2446 35 38.1984 34.6049 38.9016 33.9017C39.6049 33.1984 40 32.2446 40 31.25V8.75C40 7.75544 39.6049 6.80161 38.9016 6.09835C38.1984 5.39509 37.2446 5 36.25 5H3.75ZM36.25 7.5C36.5815 7.5 36.8995 7.6317 37.1339 7.86612C37.3683 8.10054 37.5 8.41848 37.5 8.75V23.75L28.0625 18.8825C27.8281 18.7651 27.5626 18.7243 27.3037 18.766C27.0449 18.8078 26.8057 18.9298 26.62 19.115L17.345 28.39L10.695 23.96C10.4549 23.8001 10.1669 23.7283 9.87985 23.7565C9.59279 23.7848 9.32433 23.9114 9.12 24.115L2.505 30V31.35C2.50201 31.3167 2.50034 31.2834 2.5 31.25V8.75C2.5 8.41848 2.6317 8.10054 2.86612 7.86612C3.10054 7.6317 3.41848 7.5 3.75 7.5H36.25Z" fill="#2C333A"/>
</g>
<defs>
<clipPath id="clip0_3215_5400">
<rect width="40" height="40" fill="white"/>
</clipPath>
</defs>
</svg>
