<svg width="40" height="40" viewBox="0 0 40 40" fill="none" xmlns="http://www.w3.org/2000/svg">
<g opacity="0.8">
<path d="M19.9987 3.33398C10.7987 3.33398 3.33203 10.8007 3.33203 20.0007C3.33203 29.2007 10.7987 36.6673 19.9987 36.6673C29.1987 36.6673 36.6654 29.2007 36.6654 20.0007C36.6654 10.8007 29.1987 3.33398 19.9987 3.33398ZM11.782 30.4673C12.4987 28.9673 16.8654 27.5007 19.9987 27.5007C23.132 27.5007 27.5154 28.9673 28.2154 30.4673C25.9487 32.2673 23.0987 33.334 19.9987 33.334C16.8987 33.334 14.0487 32.2673 11.782 30.4673ZM30.5987 28.0507C28.2154 25.1507 22.432 24.1673 19.9987 24.1673C17.5654 24.1673 11.782 25.1507 9.3987 28.0507C7.6987 25.8173 6.66536 23.034 6.66536 20.0007C6.66536 12.6507 12.6487 6.66732 19.9987 6.66732C27.3487 6.66732 33.332 12.6507 33.332 20.0007C33.332 23.034 32.2987 25.8173 30.5987 28.0507ZM19.9987 10.0007C16.7654 10.0007 14.1654 12.6007 14.1654 15.834C14.1654 19.0673 16.7654 21.6673 19.9987 21.6673C23.232 21.6673 25.832 19.0673 25.832 15.834C25.832 12.6007 23.232 10.0007 19.9987 10.0007ZM19.9987 18.334C18.6154 18.334 17.4987 17.2173 17.4987 15.834C17.4987 14.4507 18.6154 13.334 19.9987 13.334C21.382 13.334 22.4987 14.4507 22.4987 15.834C22.4987 17.2173 21.382 18.334 19.9987 18.334Z" fill="#00838F"/>
</g>
</svg>
