<svg width="32" height="32" viewBox="0 0 32 32" fill="none" xmlns="http://www.w3.org/2000/svg">
<path d="M30.6693 15.9867L27.4159 12.2667L27.8693 7.34667L23.0559 6.25333L20.5359 2L16.0026 3.94667L11.4693 2L8.94927 6.25333L4.13594 7.33333L4.58927 12.2667L1.33594 15.9867L4.58927 19.7067L4.13594 24.64L8.94927 25.7333L11.4693 30L16.0026 28.04L20.5359 29.9867L23.0559 25.7333L27.8693 24.64L27.4159 19.72L30.6693 15.9867ZM25.4026 17.96L24.6559 18.8267L24.7626 19.96L25.0026 22.56L21.3493 23.3867L20.7626 24.3733L19.4426 26.6133L17.0693 25.5867L16.0026 25.1333L14.9493 25.5867L12.5759 26.6133L11.2559 24.3867L10.6693 23.4L7.01594 22.5733L7.25594 19.96L7.3626 18.8267L6.61594 17.96L4.89594 16L6.61594 14.0267L7.3626 13.16L7.2426 12.0133L7.0026 9.42667L10.6559 8.6L11.2426 7.61333L12.5626 5.37333L14.9359 6.4L16.0026 6.85333L17.0559 6.4L19.4293 5.37333L20.7493 7.61333L21.3359 8.6L24.9893 9.42667L24.7493 12.0267L24.6426 13.16L25.3893 14.0267L27.1093 15.9867L25.4026 17.96Z" fill="white"/>
<path d="M13.4559 18.3333L10.3626 15.2267L8.38927 17.2133L13.4559 22.2933L23.2426 12.48L21.2693 10.4933L13.4559 18.3333Z" fill="white"/>
<path d="M30.6693 16L27.4159 12.28L27.8693 7.36L23.0559 6.26667L20.5359 2L16.0026 3.94667L11.4693 2L8.94927 6.25333L4.13594 7.33333L4.58927 12.2667L1.33594 16L4.58927 19.72L4.13594 24.6533L8.94927 25.7467L11.4693 30L16.0026 28.04L20.5359 29.9867L23.0559 25.7333L27.8693 24.64L27.4159 19.72L30.6693 16ZM13.4559 22.2933L8.38927 17.2133L10.3626 15.24L13.4559 18.3467L21.2559 10.52L23.2293 12.4933L13.4559 22.2933Z" fill="#2DA44E"/>
</svg>
