<svg width="30" height="30" viewBox="0 0 30 30" fill="none" xmlns="http://www.w3.org/2000/svg">
<path d="M25 3.75H5C3.62125 3.75 2.5 4.87125 2.5 6.25V23.75C2.5 25.1287 3.62125 26.25 5 26.25H25C26.3787 26.25 27.5 25.1287 27.5 23.75V6.25C27.5 4.87125 26.3787 3.75 25 3.75ZM5 23.75V8.75H25L25.0025 23.75H5Z" fill="white"/>
<path d="M11.6181 11.6172L6.98438 16.2509L11.6181 20.8847L13.3856 19.1172L10.5194 16.2509L13.3856 13.3847L11.6181 11.6172ZM18.3856 11.6172L16.6181 13.3847L19.4844 16.2509L16.6181 19.1172L18.3856 20.8847L23.0194 16.2509L18.3856 11.6172Z" fill="white"/>
</svg>
