<svg width="25" height="26" viewBox="0 0 25 26" fill="none" xmlns="http://www.w3.org/2000/svg">
<g clip-path="url(#clip0_3459_4204)">
<path d="M12.509 24.8059L12.509 24.806L12.5132 24.8059C13.0687 24.7931 13.6017 24.5843 14.018 24.2164C14.4343 23.8485 14.7071 23.3452 14.7881 22.7956L14.8725 22.2227H14.2934H10.6406H10.0614L10.146 22.7956C10.2293 23.3602 10.5148 23.8753 10.9495 24.2451C11.3842 24.6149 11.9383 24.8142 12.509 24.8059Z" stroke="#333333"/>
<path d="M22.3116 21.4928V20.2601L22.2447 20.2011L22.2429 20.1995C21.5395 19.5728 20.9238 18.8541 20.4125 18.0628L20.3988 18.0416L20.3873 18.0191C19.8252 16.9199 19.4883 15.7195 19.3964 14.4884L19.395 14.4698V14.4512V11.0223C19.393 10.7424 19.3745 10.463 19.3395 10.1855L22.3116 21.4928ZM22.3116 21.4928H2.61719V20.2601L2.68411 20.2011L2.68414 20.2011L2.6893 20.1964C3.38215 19.5677 3.98786 18.8492 4.49035 18.06L4.50301 18.0401L4.51374 18.0191C5.07585 16.9199 5.41275 15.7195 5.50469 14.4884L5.50608 14.4698V14.4512L5.50608 11.0206L5.50607 11.0194C5.50201 9.32773 6.1101 7.69168 7.21809 6.41333C8.32608 5.13497 9.85914 4.30063 11.5343 4.06433L11.9644 4.00364V3.56923V2.65951C11.9644 2.54624 12.0094 2.43761 12.0895 2.35751C12.1696 2.27742 12.2782 2.23242 12.3915 2.23242C12.5048 2.23242 12.6134 2.27742 12.6935 2.35751C12.7736 2.43761 12.8186 2.54624 12.8186 2.65951V3.53451V3.97437L13.2549 4.03043C13.8999 4.11331 14.5293 4.28769 15.1241 4.54788L15.1241 4.66554C15.1241 4.66572 15.1241 4.6659 15.1241 4.66609M22.3116 21.4928L15.1241 4.66609M15.1241 4.66609V4.66645H15.3807L15.1241 4.66609Z" stroke="#333333"/>
<path d="M20.8316 8.13976C22.7493 8.13976 24.3038 6.58519 24.3038 4.66753C24.3038 2.74988 22.7493 1.19531 20.8316 1.19531C18.9139 1.19531 17.3594 2.74988 17.3594 4.66753C17.3594 6.58519 18.9139 8.13976 20.8316 8.13976Z" fill="#BC658D"/>
</g>
<defs>
<clipPath id="clip0_3459_4204">
<rect width="25" height="25" fill="white" transform="translate(0 0.5)"/>
</clipPath>
</defs>
</svg>
