<svg width="41" height="40" viewBox="0 0 41 40" fill="none" xmlns="http://www.w3.org/2000/svg">
<g opacity="0.8">
<path d="M7.7513 33.3346V16.668H27.7513V18.3346C28.918 18.3346 30.0346 18.5013 31.0846 18.818V16.668C31.0846 14.8346 29.5846 13.3346 27.7513 13.3346H26.0846V10.0013C26.0846 5.4013 22.3513 1.66797 17.7513 1.66797C13.1513 1.66797 9.41797 5.4013 9.41797 10.0013V13.3346H7.7513C5.91797 13.3346 4.41797 14.8346 4.41797 16.668V33.3346C4.41797 35.168 5.91797 36.668 7.7513 36.668H18.1846C17.4846 35.668 16.9346 34.5346 16.568 33.3346H7.7513ZM12.7513 10.0013C12.7513 7.23463 14.9846 5.0013 17.7513 5.0013C20.518 5.0013 22.7513 7.23463 22.7513 10.0013V13.3346H12.7513V10.0013Z" fill="#00838F"/>
<path d="M27.7513 21.668C23.1513 21.668 19.418 25.4013 19.418 30.0013C19.418 34.6013 23.1513 38.3346 27.7513 38.3346C32.3513 38.3346 36.0846 34.6013 36.0846 30.0013C36.0846 25.4013 32.3513 21.668 27.7513 21.668ZM30.5013 33.918L26.918 30.3346V25.0013H28.5846V29.6513L31.668 32.7346L30.5013 33.918Z" fill="#00838F"/>
</g>
</svg>
