<svg width="24" height="24" viewBox="0 0 24 24" fill="none" xmlns="http://www.w3.org/2000/svg">
<path d="M21.6752 18.5536C21.0323 17.9805 20.4695 17.3235 20.0018 16.6003C19.4913 15.602 19.1853 14.5117 19.1018 13.3936V10.1003C19.1062 8.344 18.4692 6.64658 17.3103 5.32691C16.1515 4.00724 14.5506 3.15617 12.8085 2.93359V2.07359C12.8085 1.83755 12.7147 1.61118 12.5478 1.44427C12.3809 1.27736 12.1545 1.18359 11.9185 1.18359C11.6824 1.18359 11.4561 1.27736 11.2892 1.44427C11.1223 1.61118 11.0285 1.83755 11.0285 2.07359V2.94693C9.30199 3.18555 7.72047 4.04176 6.57684 5.357C5.43321 6.67223 4.80498 8.35736 4.80849 10.1003V13.3936C4.72499 14.5117 4.41901 15.602 3.90849 16.6003C3.44908 17.3218 2.89529 17.9788 2.26182 18.5536C2.19071 18.6161 2.13372 18.693 2.09463 18.7792C2.05555 18.8654 2.03528 18.9589 2.03516 19.0536V19.9603C2.03516 20.1371 2.10539 20.3066 2.23042 20.4317C2.35544 20.5567 2.52501 20.6269 2.70182 20.6269H21.2352C21.412 20.6269 21.5815 20.5567 21.7066 20.4317C21.8316 20.3066 21.9018 20.1371 21.9018 19.9603V19.0536C21.9017 18.9589 21.8814 18.8654 21.8423 18.7792C21.8033 18.693 21.7463 18.6161 21.6752 18.5536ZM3.42182 19.2936C4.0421 18.6944 4.58822 18.0229 5.04849 17.2936C5.69156 16.0879 6.06678 14.7576 6.14849 13.3936V10.1003C6.12205 9.31895 6.25311 8.54031 6.53385 7.8107C6.8146 7.0811 7.2393 6.41545 7.78265 5.85339C8.32601 5.29134 8.97692 4.84437 9.69661 4.53911C10.4163 4.23385 11.1901 4.07653 11.9718 4.07653C12.7536 4.07653 13.5273 4.23385 14.247 4.53911C14.9667 4.84437 15.6176 5.29134 16.161 5.85339C16.7043 6.41545 17.129 7.0811 17.4098 7.8107C17.6905 8.54031 17.8216 9.31895 17.7952 10.1003V13.3936C17.8769 14.7576 18.2521 16.0879 18.8952 17.2936C19.3554 18.0229 19.9016 18.6944 20.5218 19.2936H3.42182Z" fill="#2C333A"/>
<path d="M12.0015 22.854C12.4215 22.8443 12.8245 22.6864 13.1392 22.4083C13.454 22.1301 13.6603 21.7496 13.7215 21.334H10.2148C10.2778 21.7609 10.4937 22.1503 10.8224 22.4299C11.151 22.7095 11.5701 22.8602 12.0015 22.854Z" fill="#2C333A"/>
</svg>
