<svg width="41" height="40" viewBox="0 0 41 40" fill="none" xmlns="http://www.w3.org/2000/svg">
<g clip-path="url(#clip0_3825_8040)">
<path d="M7.77094 7.01203C9.00844 8.02078 9.47719 7.94953 11.8134 7.79328L33.8384 6.47203C34.3072 6.47203 33.9172 6.00328 33.7597 5.92453L30.1009 3.28078C29.4047 2.73328 28.4672 2.11578 26.6759 2.26453L5.35469 3.82703C4.57344 3.89828 4.41719 4.28953 4.72969 4.60203L7.77094 7.01203ZM9.09219 12.1495V35.3195C9.09219 36.5633 9.71094 37.032 11.1109 36.9533L35.3172 35.5533C36.7172 35.4745 36.8797 34.622 36.8797 33.607V10.5933C36.8797 9.57703 36.4884 9.03703 35.6297 9.11578L10.3372 10.5933C9.39969 10.672 9.09344 11.1333 9.09344 12.1433L9.09219 12.1495ZM32.9859 13.3858C33.1422 14.0895 32.9859 14.7858 32.2822 14.8708L31.1172 15.1058V32.2083C30.1009 32.7558 29.1709 33.0683 28.3959 33.0683C27.1459 33.0683 26.8334 32.677 25.9022 31.512L18.2722 19.5333V31.122L20.6872 31.6695C20.6872 31.6695 20.6872 33.0695 18.7409 33.0695L13.3697 33.382C13.2134 33.0695 13.3697 32.2883 13.9172 32.1383L15.3172 31.747V16.4283L13.3709 16.272C13.2147 15.5683 13.6059 14.5595 14.6922 14.482L20.4534 14.0908L28.3959 26.2258V15.4895L26.3709 15.2545C26.2147 14.402 26.8334 13.777 27.6147 13.7045L32.9859 13.3858ZM3.56469 1.72578L25.7459 0.0920345C28.4672 -0.142965 29.1709 0.0132845 30.8822 1.25703L37.9659 6.23703C39.1309 7.08953 39.5222 7.32453 39.5222 8.25578V35.5545C39.5222 37.267 38.8972 38.2758 36.7222 38.432L10.9534 39.9883C9.32594 40.067 8.54469 39.832 7.68469 38.7445L2.46969 31.9733C1.53844 30.7295 1.14844 29.7983 1.14844 28.712V4.44828C1.14844 3.04828 1.77344 1.88328 3.56344 1.72703L3.56469 1.72578Z" fill="#2C333A"/>
</g>
<defs>
<clipPath id="clip0_3825_8040">
<rect width="40" height="40" fill="white" transform="translate(0.335938)"/>
</clipPath>
</defs>
</svg>
