<svg width="40" height="40" viewBox="0 0 40 40" fill="none" xmlns="http://www.w3.org/2000/svg">
<path d="M27.8648 32.92L26.7981 24.38C26.647 23.1704 26.0591 22.0576 25.1451 21.251C24.2311 20.4444 23.0539 19.9995 21.8348 20H18.1615C16.943 20.0003 15.7666 20.4456 14.8533 21.2521C13.94 22.0587 13.3526 23.1709 13.2015 24.38L12.1331 32.92C12.0745 33.3892 12.1164 33.8655 12.2559 34.3172C12.3955 34.769 12.6296 35.1859 12.9427 35.5403C13.2557 35.8946 13.6406 36.1783 14.0717 36.3725C14.5028 36.5667 14.9703 36.667 15.4431 36.6667H24.5565C25.0292 36.6668 25.4965 36.5663 25.9274 36.372C26.3583 36.1777 26.743 35.894 27.0559 35.5397C27.3687 35.1853 27.6027 34.7685 27.7421 34.3169C27.8816 33.8652 27.9234 33.389 27.8648 32.92V32.92Z" stroke="#BC658D" stroke-width="2" stroke-linecap="round" stroke-linejoin="round"/>
<path d="M20 13.332C22.7614 13.332 25 11.0935 25 8.33203C25 5.57061 22.7614 3.33203 20 3.33203C17.2386 3.33203 15 5.57061 15 8.33203C15 11.0935 17.2386 13.332 20 13.332Z" stroke="#BC658D" stroke-width="2"/>
<path d="M6.66659 18.3307C8.50753 18.3307 9.99992 16.8383 9.99992 14.9974C9.99992 13.1564 8.50753 11.6641 6.66659 11.6641C4.82564 11.6641 3.33325 13.1564 3.33325 14.9974C3.33325 16.8383 4.82564 18.3307 6.66659 18.3307Z" stroke="#BC658D" stroke-width="2"/>
<path d="M33.3333 18.3307C35.1743 18.3307 36.6667 16.8383 36.6667 14.9974C36.6667 13.1564 35.1743 11.6641 33.3333 11.6641C31.4924 11.6641 30 13.1564 30 14.9974C30 16.8383 31.4924 18.3307 33.3333 18.3307Z" stroke="#BC658D" stroke-width="2"/>
<path d="M33.3332 23.332H33.8432C34.6323 23.3319 35.3958 23.6118 35.9979 24.1217C36.6001 24.6317 37.0018 25.3387 37.1316 26.117L37.6866 29.4504C37.7662 29.9279 37.7409 30.4171 37.6123 30.8839C37.4837 31.3507 37.255 31.7839 36.942 32.1533C36.6291 32.5227 36.2394 32.8196 35.8001 33.0231C35.3608 33.2267 34.8824 33.3321 34.3982 33.332H28.3332M6.66657 23.332H6.15657C5.3675 23.3319 4.60399 23.6118 4.00186 24.1217C3.39973 24.6317 2.99803 25.3387 2.86823 26.117L2.31323 29.4504C2.23359 29.9279 2.25893 30.4171 2.38751 30.8839C2.51609 31.3507 2.74482 31.7839 3.05778 32.1533C3.37074 32.5227 3.76042 32.8196 4.19972 33.0231C4.63902 33.2267 5.11739 33.3321 5.60157 33.332H11.6666L6.66657 23.332Z" stroke="#BC658D" stroke-width="2" stroke-linecap="round" stroke-linejoin="round"/>
</svg>
