<svg width="40" height="40" viewBox="0 0 40 40" fill="none" xmlns="http://www.w3.org/2000/svg">
<path d="M8.41219 25.2059C8.41219 27.5234 6.53922 29.3966 4.22172 29.3966C1.90422 29.3966 0.03125 27.5234 0.03125 25.2059C0.03125 22.8886 1.90422 21.0156 4.22187 21.0156H8.41203V25.2061L8.41219 25.2059ZM10.5075 25.2059C10.5075 22.8886 12.3805 21.0156 14.698 21.0156C17.0155 21.0156 18.8884 22.8886 18.8884 25.2061V35.6822C18.8884 37.9997 17.0155 39.8728 14.6978 39.8728C12.3806 39.8728 10.5075 37.9997 10.5075 35.6822V25.2061V25.2059Z" fill="#E01E5A"/>
<path d="M14.6984 8.38094C12.3809 8.38094 10.5078 6.50797 10.5078 4.19047C10.5078 1.87297 12.3811 0 14.6984 0C17.0158 0 18.8889 1.87297 18.8889 4.19047V8.38109H14.6983L14.6984 8.38094ZM14.6984 10.508C17.0159 10.508 18.8889 12.3809 18.8889 14.6984C18.8889 17.0159 17.0159 18.8889 14.6983 18.8889H4.19063C1.87297 18.8889 0 17.0159 0 14.6983C0 12.3811 1.87297 10.508 4.19047 10.508H14.6983H14.6984Z" fill="#36C5F0"/>
<path d="M31.4919 14.6984C31.4919 12.3809 33.3648 10.5078 35.6822 10.5078C37.9997 10.5078 39.8728 12.3809 39.8728 14.6984C39.8728 17.0159 37.9997 18.8889 35.6822 18.8889H31.4919V14.6983V14.6984ZM29.3966 14.6984C29.3966 17.0159 27.5234 18.8889 25.2059 18.8889C22.8886 18.8889 21.0156 17.0159 21.0156 14.6983V4.19063C21.0156 1.87297 22.8886 0 25.2059 0C27.5233 0 29.3964 1.87297 29.3964 4.19047V14.6983L29.3966 14.6984Z" fill="#2EB67D"/>
<path d="M25.2059 31.4919C27.5234 31.4919 29.3966 33.3648 29.3966 35.6822C29.3966 37.9997 27.5234 39.8728 25.2059 39.8728C22.8886 39.8728 21.0156 37.9997 21.0156 35.6822V31.4919H25.2061H25.2059ZM25.2059 29.3966C22.8886 29.3966 21.0156 27.5234 21.0156 25.2059C21.0156 22.8886 22.8886 21.0156 25.2061 21.0156H35.7139C38.0314 21.0156 39.9045 22.8886 39.9045 25.2061C39.9045 27.5234 38.0314 29.3966 35.7139 29.3966H25.2061H25.2059Z" fill="#ECB22E"/>
</svg>
