<svg width="32" height="33" viewBox="0 0 32 33" fill="none" xmlns="http://www.w3.org/2000/svg">
<path d="M16.0013 29.8327C21.1466 29.8327 25.3346 25.6447 25.3346 20.4993C25.3346 15.354 21.1466 11.166 16.0013 11.166C10.8546 11.166 6.66797 15.354 6.66797 20.4993C6.66797 25.6447 10.8546 29.8327 16.0013 29.8327ZM16.0013 13.8327C19.6773 13.8327 22.668 16.8233 22.668 20.4993C22.668 24.1753 19.6773 27.166 16.0013 27.166C12.3253 27.166 9.33464 24.1753 9.33464 20.4993C9.33464 16.8233 12.3253 13.8327 16.0013 13.8327ZM14.668 3.16602H9.33464V10.5233C10.9302 9.45565 12.7597 8.78835 14.668 8.57802V3.16602ZM22.668 3.16602H17.3346V8.57802C19.2429 8.78835 21.0724 9.45565 22.668 10.5233V3.16602Z" fill="#2C333A"/>
<path d="M13.3575 21.5807L12.7335 25.2154L15.9988 23.4993L19.2642 25.2154L18.6402 21.5807L21.2828 19.0047L17.6322 18.474L15.9988 15.166L14.3655 18.474L10.7148 19.0047L13.3575 21.5807Z" fill="#2C333A"/>
</svg>
