<svg width="24" height="25" viewBox="0 0 24 25" fill="none" xmlns="http://www.w3.org/2000/svg">
<path d="M11.6715 10.0154C10.0063 10.1719 8.67194 11.5063 8.51537 13.1715L7.79557 13.5L8.51537 13.8285C8.67194 15.4937 10.0063 16.8281 11.6715 16.9846L12 17.7044L12.3285 16.9846C13.9937 16.8281 15.3281 15.4937 15.4846 13.8285L16.2044 13.5L15.4846 13.1715C15.3281 11.5063 13.9937 10.1719 12.3285 10.0154L12 9.29557L11.6715 10.0154ZM12.7324 13.0149L13.7956 13.5L12.7324 13.9851L12.5626 14.0626L12.4851 14.2324L12 15.2956L11.5149 14.2324L11.4374 14.0626L11.2676 13.9851L10.2044 13.5L11.2676 13.0149L11.4374 12.9374L11.5149 12.7676L12 11.7044L12.4851 12.7676L12.5626 12.9374L12.7324 13.0149ZM16.4611 5.83753L16.6098 6H16.83H20C20.8239 6 21.5 6.67614 21.5 7.5V19.5C21.5 20.3239 20.8239 21 20 21H4C3.17614 21 2.5 20.3239 2.5 19.5V7.5C2.5 6.67614 3.17614 6 4 6H7.17H7.39022L7.53888 5.83753L9.22022 4H14.7798L16.4611 5.83753ZM20 20H20.5V19.5V7.5V7H20H16.1714L15.7302 6.51395L15.7302 6.51394L15.7282 6.51177L14.4882 5.16177L14.3397 5H14.12H9.88H9.66035L9.51176 5.16177L8.27176 6.51177L8.27176 6.51176L8.26977 6.51395L7.82859 7H4H3.5V7.5V19.5V20H4H20ZM7.5 13.5C7.5 11.0161 9.51614 9 12 9C14.4839 9 16.5 11.0161 16.5 13.5C16.5 15.9839 14.4839 18 12 18C9.51614 18 7.5 15.9839 7.5 13.5Z" fill="#2C333A" stroke="#F9FAFB"/>
</svg>
