<svg width="41" height="40" viewBox="0 0 41 40" fill="none" xmlns="http://www.w3.org/2000/svg">
<g clip-path="url(#clip0_3825_8026)">
<path d="M38.8908 0H19.6797C19.6797 2.30001 20.5934 4.50581 22.2197 6.13216C23.8461 7.75851 26.0519 8.67219 28.3519 8.67219H31.8908V12.0891C31.8939 16.8742 35.7722 20.7527 40.5573 20.7558V1.66656C40.5573 0.746406 39.8114 0 38.8908 0Z" fill="#2684FF"/>
<path d="M29.3828 9.57031H10.1719C10.1748 14.3555 14.0531 18.2339 18.8384 18.237H22.3773V21.6648C22.3834 26.45 26.2644 30.3258 31.0495 30.3258V11.2372C31.0495 10.3167 30.3033 9.57047 29.3828 9.57047V9.57031Z" fill="url(#paint0_linear_3825_8026)"/>
<path d="M19.8752 19.1406H0.664062C0.664062 23.9302 4.54687 27.8128 9.33625 27.8128H12.8862V31.2295C12.8894 36.0103 16.7609 39.887 21.5419 39.8961V20.8073C21.5419 19.8869 20.7956 19.1406 19.8752 19.1406Z" fill="url(#paint1_linear_3825_8026)"/>
</g>
<defs>
<linearGradient id="paint0_linear_3825_8026" x1="30.6384" y1="9.60373" x2="22.516" y2="18.0791" gradientUnits="userSpaceOnUse">
<stop offset="0.18" stop-color="#0052CC"/>
<stop offset="1" stop-color="#2684FF"/>
</linearGradient>
<linearGradient id="paint1_linear_3825_8026" x1="21.6807" y1="19.2351" x2="12.2851" y2="28.4791" gradientUnits="userSpaceOnUse">
<stop offset="0.18" stop-color="#0052CC"/>
<stop offset="1" stop-color="#2684FF"/>
</linearGradient>
<clipPath id="clip0_3825_8026">
<rect width="40" height="40" fill="white" transform="translate(0.664062)"/>
</clipPath>
</defs>
</svg>
