<svg width="24" height="24" viewBox="0 0 24 24" fill="none" xmlns="http://www.w3.org/2000/svg">
<g opacity="0.7">
<path d="M16.5 8.5V9H17H18C18.8239 9 19.5 9.67614 19.5 10.5V20.5C19.5 21.3239 18.8239 22 18 22H6C5.17614 22 4.5 21.3239 4.5 20.5V10.5C4.5 9.67614 5.17614 9 6 9H7H7.5V8.5V6.5C7.5 4.01614 9.51614 2 12 2C14.4839 2 16.5 4.01614 16.5 6.5V8.5ZM15 9H15.5V8.5V6.5C15.5 4.56386 13.9361 3 12 3C10.0639 3 8.5 4.56386 8.5 6.5V8.5V9H9H15ZM18 21H18.5V20.5V10.5V10H18H6H5.5V10.5V20.5V21H6H18ZM13.5 15.5C13.5 16.3239 12.8239 17 12 17C11.1761 17 10.5 16.3239 10.5 15.5C10.5 14.6761 11.1761 14 12 14C12.8239 14 13.5 14.6761 13.5 15.5Z" fill="#2C333A" stroke="#2C333A"/>
</g>
</svg>
