<svg width="40" height="40" viewBox="0 0 40 40" fill="none" xmlns="http://www.w3.org/2000/svg">
<path d="M28.5675 7.51177C25.205 7.60427 22.5987 8.51677 20.0612 9.39927C17.3475 10.3418 14.7863 11.2305 11.2375 11.2668C8.86625 11.3043 6.49125 10.8943 4.1575 10.0868L2.5 9.51427V30.8668L3.3325 31.163C5.50625 31.9318 7.72875 32.3755 9.94125 32.4805C10.2925 32.4968 10.6363 32.5055 10.9738 32.5055C14.74 32.5055 17.6238 31.5055 20.42 30.5405C23.3675 29.5205 26.1475 28.5568 29.9412 28.7355C31.9521 28.8388 33.937 29.2364 35.8325 29.9155L37.5 30.5055V9.14427L36.6775 8.84427C34.5505 8.06965 32.3177 7.62452 30.0562 7.52427C29.5603 7.50226 29.0637 7.49809 28.5675 7.51177ZM28.635 9.99427C29.06 9.98177 29.495 9.98177 29.9463 9.99927C30.4138 10.0193 30.8812 10.0618 31.3475 10.1168C31.5377 10.9011 32.0245 11.5811 32.7056 12.014C33.3867 12.4469 34.2092 12.5989 35 12.438V23.8155C34.5905 23.7322 34.1685 23.732 33.7589 23.8149C33.3493 23.8979 32.9606 24.0623 32.6159 24.2984C32.2711 24.5345 31.9773 24.8375 31.7519 25.1894C31.5265 25.5413 31.3741 25.9349 31.3037 26.3468C30.8897 26.3042 30.4745 26.2734 30.0588 26.2543C25.79 26.0668 22.6425 27.1405 19.6 28.1955C16.6488 29.218 13.8525 30.1843 10.0612 30.0043C9.58907 29.9796 9.11793 29.9379 8.64875 29.8793C8.45695 29.0971 7.97003 28.4195 7.28992 27.9882C6.60982 27.557 5.78926 27.4055 5 27.5655V16.188C5.41193 16.2719 5.83657 16.2715 6.24835 16.1869C6.66014 16.1023 7.05055 15.9353 7.3961 15.6959C7.74166 15.4565 8.0352 15.1497 8.25907 14.7939C8.48293 14.4381 8.63249 14.0406 8.69875 13.6255C9.555 13.7143 10.4113 13.7655 11.265 13.7518C15.2213 13.7118 18.0975 12.7105 20.8813 11.743C23.3325 10.8893 25.6688 10.0868 28.635 9.99427ZM20 13.7518C17.2425 13.7518 15 16.5555 15 20.0018C15 23.448 17.2425 26.2518 20 26.2518C22.7575 26.2518 25 23.448 25 20.0018C25 16.5555 22.7575 13.7518 20 13.7518ZM20 16.2518C21.355 16.2518 22.5 17.9693 22.5 20.0018C22.5 22.0343 21.355 23.7518 20 23.7518C18.645 23.7518 17.5 22.0343 17.5 20.0018C17.5 17.9693 18.645 16.2518 20 16.2518ZM29.375 16.2518C28.8777 16.2518 28.4008 16.4493 28.0492 16.8009C27.6975 17.1526 27.5 17.6295 27.5 18.1268C27.5 18.6241 27.6975 19.101 28.0492 19.4526C28.4008 19.8042 28.8777 20.0018 29.375 20.0018C29.8723 20.0018 30.3492 19.8042 30.7008 19.4526C31.0525 19.101 31.25 18.6241 31.25 18.1268C31.25 17.6295 31.0525 17.1526 30.7008 16.8009C30.3492 16.4493 29.8723 16.2518 29.375 16.2518ZM10.625 20.0018C10.1277 20.0018 9.65081 20.1993 9.29917 20.551C8.94754 20.9026 8.75 21.3795 8.75 21.8768C8.75 22.3741 8.94754 22.851 9.29917 23.2026C9.65081 23.5542 10.1277 23.7518 10.625 23.7518C11.1223 23.7518 11.5992 23.5542 11.9508 23.2026C12.3025 22.851 12.5 22.3741 12.5 21.8768C12.5 21.3795 12.3025 20.9026 11.9508 20.551C11.5992 20.1993 11.1223 20.0018 10.625 20.0018Z" fill="#BC658D"/>
</svg>
