<svg width="41" height="40" viewBox="0 0 41 40" fill="none" xmlns="http://www.w3.org/2000/svg">
<g opacity="0.8">
<path d="M20.4987 36.6654C26.9304 36.6654 32.1654 31.4304 32.1654 24.9987C32.1654 18.567 26.9304 13.332 20.4987 13.332C14.0654 13.332 8.83203 18.567 8.83203 24.9987C8.83203 31.4304 14.0654 36.6654 20.4987 36.6654ZM20.4987 16.6654C25.0937 16.6654 28.832 20.4037 28.832 24.9987C28.832 29.5937 25.0937 33.332 20.4987 33.332C15.9037 33.332 12.1654 29.5937 12.1654 24.9987C12.1654 20.4037 15.9037 16.6654 20.4987 16.6654ZM18.832 3.33203H12.1654V12.5287C14.1598 11.1941 16.4467 10.36 18.832 10.097V3.33203ZM28.832 3.33203H22.1654V10.097C24.5507 10.36 26.8376 11.1941 28.832 12.5287V3.33203Z" fill="#00838F"/>
<path d="M17.1979 26.3504L16.4179 30.8937L20.4995 28.7487L24.5812 30.8937L23.8012 26.3504L27.1045 23.1304L22.5412 22.467L20.4995 18.332L18.4579 22.467L13.8945 23.1304L17.1979 26.3504Z" fill="#2C333A"/>
</g>
</svg>
