<svg width="24" height="24" viewBox="0 0 24 24" fill="none" xmlns="http://www.w3.org/2000/svg">
<path d="M15.7539 14.2578H14.9639L14.6839 13.9878C15.6639 12.8478 16.2539 11.3678 16.2539 9.75781C16.2539 6.16781 13.3439 3.25781 9.75391 3.25781C6.16391 3.25781 3.25391 6.16781 3.25391 9.75781C3.25391 13.3478 6.16391 16.2578 9.75391 16.2578C11.3639 16.2578 12.8439 15.6678 13.9839 14.6878L14.2539 14.9678V15.7578L19.2539 20.7478L20.7439 19.2578L15.7539 14.2578ZM9.75391 14.2578C7.26391 14.2578 5.25391 12.2478 5.25391 9.75781C5.25391 7.26781 7.26391 5.25781 9.75391 5.25781C12.2439 5.25781 14.2539 7.26781 14.2539 9.75781C14.2539 12.2478 12.2439 14.2578 9.75391 14.2578Z" fill="#2C333A"/>
</svg>
