<svg width="40" height="40" viewBox="0 0 40 40" fill="none" xmlns="http://www.w3.org/2000/svg">
<path d="M0 10C0 10 0 5 5 5H35C35 5 40 5 40 10V25C40 25 40 30 35 30H25C25 31.6675 25.2075 32.9175 25.625 33.75H27.5C27.8315 33.75 28.1495 33.8817 28.3839 34.1161C28.6183 34.3505 28.75 34.6685 28.75 35C28.75 35.3315 28.6183 35.6495 28.3839 35.8839C28.1495 36.1183 27.8315 36.25 27.5 36.25H12.5C12.1685 36.25 11.8505 36.1183 11.6161 35.8839C11.3817 35.6495 11.25 35.3315 11.25 35C11.25 34.6685 11.3817 34.3505 11.6161 34.1161C11.8505 33.8817 12.1685 33.75 12.5 33.75H14.375C14.7925 32.9175 15 31.6675 15 30H5C5 30 0 30 0 25V10ZM3.495 7.8625C3.22039 8.05369 3.0013 8.31418 2.86 8.6175C2.6469 9.0578 2.52447 9.53645 2.5 10.025V25C2.5 25.8125 2.695 26.255 2.8625 26.505C3.0375 26.7675 3.2875 26.975 3.6175 27.14C4.03884 27.3441 4.49543 27.4655 4.9625 27.4975L5.025 27.5H35C35.8125 27.5 36.255 27.305 36.505 27.1375C36.7796 26.9463 36.9987 26.6858 37.14 26.3825C37.3441 25.9612 37.4655 25.5046 37.4975 25.0375L37.5 24.975V10C37.5 9.1875 37.305 8.745 37.1375 8.495C36.9464 8.22031 36.6859 8.0012 36.3825 7.86C35.9422 7.6469 35.4636 7.52447 34.975 7.5H5C4.1875 7.5 3.745 7.695 3.495 7.8625Z" fill="#BC658D"/>
</svg>
