<svg width="32" height="33" viewBox="0 0 32 33" fill="none" xmlns="http://www.w3.org/2000/svg">
<path d="M28.0013 5.83268H24.0013V4.49935C24.0013 4.14573 23.8608 3.80659 23.6108 3.55654C23.3607 3.30649 23.0216 3.16602 22.668 3.16602H9.33464C8.98101 3.16602 8.64188 3.30649 8.39183 3.55654C8.14178 3.80659 8.0013 4.14573 8.0013 4.49935V5.83268H4.0013C3.64768 5.83268 3.30854 5.97316 3.05849 6.22321C2.80844 6.47326 2.66797 6.81239 2.66797 7.16602V11.166C2.66797 16.9127 5.06664 20.3793 9.0933 20.5154C9.68278 21.5284 10.4876 22.3996 11.4509 23.0673C12.4142 23.735 13.5125 24.1829 14.668 24.3793V27.166H12.0013V29.8327H20.0013V27.166H17.3346V24.3793C18.4899 24.1821 19.5878 23.7339 20.551 23.0663C21.5142 22.3986 22.3192 21.5279 22.9093 20.5154C26.936 20.3793 29.3346 16.9127 29.3346 11.166V7.16602C29.3346 6.81239 29.1942 6.47326 28.9441 6.22321C28.6941 5.97316 28.3549 5.83268 28.0013 5.83268ZM5.33464 11.166V8.49935H8.0013V17.606C5.62264 16.6033 5.33464 12.898 5.33464 11.166ZM16.0013 21.8327C13.06 21.8327 10.668 19.4407 10.668 16.4993V5.83268H21.3346V16.4993C21.3346 19.4407 18.9426 21.8327 16.0013 21.8327ZM24.0013 17.606V8.49935H26.668V11.166C26.668 12.898 26.38 16.6033 24.0013 17.606Z" fill="#BC658D"/>
</svg>
